<svg width="205" height="206" xmlns="http://www.w3.org/2000/svg" xmlns:xlink="http://www.w3.org/1999/xlink" xml:space="preserve" overflow="hidden"><g transform="translate(-352 -296)"><path d="M104.657 138.813C104.657 141.171 102.745 143.084 100.386 143.084 98.0272 143.084 96.1151 141.171 96.1151 138.813 96.1151 136.454 98.0272 134.542 100.386 134.542 102.745 134.542 104.657 136.454 104.657 138.813Z" transform="matrix(1 0 0 1.00488 352 296)"/><path d="M121.74 138.813C121.74 141.171 119.828 143.084 117.469 143.084 115.111 143.084 113.198 141.171 113.198 138.813 113.198 136.454 115.111 134.542 117.469 134.542 119.828 134.542 121.74 136.454 121.74 138.813Z" transform="matrix(1 0 0 1.00488 352 296)"/><path d="M104.657 155.896C104.657 158.255 102.745 160.167 100.386 160.167 98.0272 160.167 96.1151 158.255 96.1151 155.896 96.1151 153.537 98.0272 151.625 100.386 151.625 102.745 151.625 104.657 153.537 104.657 155.896Z" transform="matrix(1 0 0 1.00488 352 296)"/><path d="M121.74 155.896C121.74 158.255 119.828 160.167 117.469 160.167 115.111 160.167 113.198 158.255 113.198 155.896 113.198 153.537 115.111 151.625 117.469 151.625 119.828 151.625 121.74 153.537 121.74 155.896Z" transform="matrix(1 0 0 1.00488 352 296)"/><path d="M68.3504 61.8844 68.3163 61.9271C57.6563 74.7396 65.8541 84.1119 65.2391 93.9583 64.8193 98.0989 63.1697 102.019 60.5028 105.214 64.1503 106.723 68.0329 107.586 71.9764 107.764 59.6529 112.41 50.761 117.198 44.2373 122.735 39.4196 126.711 36.5389 132.562 36.3256 138.804L36.3256 176.321 38.2261 177.59C48.6896 184.562 76.008 188.036 103.13 188.036 130.474 188.036 157.594 184.5 166.99 177.453L168.698 176.172 168.698 138.721C168.464 132.512 165.589 126.699 160.797 122.744 154.271 117.204 145.379 112.417 133.058 107.772 137 107.595 140.881 106.732 144.527 105.223 141.858 102.026 140.207 98.1021 139.789 93.9583 139.174 84.1034 147.352 74.7396 136.712 61.9271L136.684 51.25C146.111 44.1643 148.01 30.7775 140.924 21.3499 136.028 14.8346 127.849 11.6749 119.844 13.2054 113.017 3.6361 99.7261 1.41257 90.1567 8.23901 88.2376 9.60803 86.5593 11.2863 85.1903 13.2054 73.6065 10.9907 62.4208 18.5859 60.2059 30.1696 58.6755 38.1748 61.8353 46.3533 68.3504 51.25ZM76.8921 70.4794 76.8921 64.0732 128.142 64.0732 128.142 70.4794C128.127 84.6253 116.663 96.0891 102.517 96.1044L102.517 96.1044C88.3719 96.088 76.9096 84.6246 76.8942 70.4794ZM89.6875 102.607 89.6875 102.124C97.9037 105.481 107.109 105.481 115.325 102.124L115.325 102.598C115.318 105.794 116.747 108.823 119.218 110.849 113.796 112.447 108.167 113.233 102.515 113.179 96.8574 113.234 91.2231 112.447 85.7968 110.845 88.2638 108.822 89.692 105.798 89.6875 102.607ZM81.1629 21.3648C84.3409 21.3636 87.4045 22.5494 89.7537 24.6897 90.2617 17.6401 96.3884 12.337 103.438 12.8451 109.781 13.3021 114.826 18.347 115.283 24.6897 120.52 19.9395 128.616 20.3341 133.366 25.571 138.116 30.8079 137.721 38.9039 132.484 43.6539 131.223 44.7976 129.747 45.6783 128.142 46.2446L128.142 55.5315 76.8921 55.5315 76.8921 46.2446C70.2275 43.8666 66.7527 36.5359 69.1307 29.8715 70.9464 24.7824 75.7597 21.3796 81.1629 21.3648ZM44.8608 138.902C45.0238 135.127 46.8154 131.608 49.7723 129.255 55.6212 124.288 63.8297 119.912 75.4891 115.558 75.929 115.831 76.4266 116.079 76.9006 116.335L76.9006 178.262C63.093 177.039 51.2756 174.809 44.8694 171.583ZM160.156 171.709C148.467 178.139 114.367 180.515 85.4295 178.875L85.4295 119.624C91.0098 121.058 96.7515 121.765 102.513 121.729 113.421 121.729 123.275 119.451 129.541 115.558 141.198 119.91 149.4 124.286 155.258 129.255 158.189 131.588 159.974 135.07 160.156 138.813Z" transform="matrix(1 0 0 1.00488 352 296)"/></g></svg>