<svg width="1218" height="1218" xmlns="http://www.w3.org/2000/svg" xmlns:xlink="http://www.w3.org/1999/xlink" xml:space="preserve" overflow="hidden"><g transform="translate(-2582 -668)"><g><g><g><path d="M3158 1544 3141.5 1544 3141.5 1511 2910.5 1511 2910.5 1544 2894 1544C2875.85 1544 2861 1558.85 2861 1577 2861 1595.15 2875.85 1610 2894 1610L3158 1610C3176.15 1610 3191 1595.15 3191 1577 3191 1558.85 3176.15 1544 3158 1544Z"/><path d="M3157.18 1379.83C3167.07 1369.93 3167.07 1354.25 3157.18 1345.18L3026.82 1214.83C3016.93 1204.93 3001.25 1204.93 2992.18 1214.83L2960 1247 3125 1412 3157.18 1379.83Z"/><path d="M3355.18 1147.18C3365.07 1157.08 3380.75 1157.08 3389.82 1147.18L3422 1115 3257 950 3224.82 982.175C3214.93 992.075 3214.93 1007.75 3224.82 1016.83L3355.18 1147.18Z"/><path d="M3512.75 1436.75 3290 1214 3339.5 1164.5 3207.5 1032.5 3042.5 1197.5 3174.5 1329.5 3240.5 1263.5 3463.25 1486.25C3477.27 1500.28 3498.73 1500.28 3512.75 1486.25 3526.77 1472.23 3526.77 1450.78 3512.75 1436.75Z"/></g></g></g><path d="M3191 794.875C2924.65 794.798 2708.67 1010.65 2708.6 1277 2708.52 1543.35 2924.37 1759.33 3190.72 1759.4 3457.07 1759.48 3673.05 1543.63 3673.13 1277.28 3673.13 1277.23 3673.13 1277.19 3673.13 1277.14 3673.27 1010.94 3457.59 795.022 3191.39 794.875 3191.26 794.875 3191.13 794.875 3191 794.875ZM3191 1734.02C2938.86 1734.16 2734.34 1529.87 2734.2 1277.72 2734.13 1160.77 2778.96 1048.24 2859.42 963.365L3504.75 1608.69C3420.13 1689.19 3307.79 1734.07 3191 1734.02ZM3522.69 1590.75 2877.36 945.425C3060.44 772.093 3349.36 779.989 3522.69 963.06 3689.36 1139.1 3689.36 1414.71 3522.69 1590.75Z" fill="#FF0000"/></g></svg>