<svg width="201" height="201" xmlns="http://www.w3.org/2000/svg" xmlns:xlink="http://www.w3.org/1999/xlink" xml:space="preserve" overflow="hidden"><g transform="translate(-130 -501)"><path d="M222.125 668.5 217.938 668.5 217.938 660.125 159.312 660.125 159.312 668.5 155.125 668.5C150.519 668.5 146.75 672.269 146.75 676.875 146.75 681.481 150.519 685.25 155.125 685.25L222.125 685.25C226.731 685.25 230.5 681.481 230.5 676.875 230.5 672.269 226.731 668.5 222.125 668.5Z"/><path d="M221.916 626.834C224.428 624.322 224.428 620.344 221.916 618.041L188.834 584.959C186.322 582.447 182.344 582.447 180.041 584.959L171.875 593.125 213.75 635 221.916 626.834Z"/><path d="M272.166 567.791C274.678 570.303 278.656 570.303 280.959 567.791L289.125 559.625 247.25 517.75 239.084 525.916C236.572 528.428 236.572 532.406 239.084 534.709L272.166 567.791Z"/><path d="M312.156 641.281 255.625 584.75 268.188 572.188 234.688 538.688 192.812 580.562 226.312 614.062 243.062 597.312 299.594 653.844C303.153 657.403 308.597 657.403 312.156 653.844 315.716 650.284 315.716 644.841 312.156 641.281Z"/></g></svg>