<svg width="187" height="188" xmlns="http://www.w3.org/2000/svg" xmlns:xlink="http://www.w3.org/1999/xlink" xml:space="preserve" overflow="hidden"><g transform="translate(-783 -499)"><path d="M142.198 36.1358 134.406 36.1358 134.406 19.4792C134.407 17.3276 132.663 15.583 130.511 15.5825 130.249 15.5825 129.988 15.6089 129.731 15.6612L42.075 33.5509C40.2609 33.9212 38.9579 35.5173 38.9583 37.3688L38.9583 167.521C38.9583 169.673 40.7025 171.417 42.8542 171.417L142.198 171.417C144.35 171.417 146.094 169.673 146.094 167.521L146.094 40.0316C146.094 37.88 144.35 36.1358 142.198 36.1358ZM126.615 32.24 126.615 36.1358 68.3719 36.1358 126.615 24.2516ZM46.75 43.9275 138.302 43.9275 138.302 163.625 46.75 163.625Z" transform="matrix(1 0 0 1.00535 783 499)"/><path d="M113.904 89.1172C123.408 78.4484 119.955 74.726 119.955 74.726 118.824 73.5744 116.974 73.557 115.823 74.6874 115.81 74.7003 115.797 74.7129 115.784 74.726L88.0614 102.449 63.9228 124.978C62.2059 126.695 62.2059 129.479 63.9228 131.196 65.6397 132.913 68.4237 132.913 70.1406 131.196L92.152 107.057C93.2487 107.57 96.1511 109.005 97.0218 108.057Z" transform="matrix(1 0 0 1.00535 783 499)"/><path d="M121.381 124.978 102.086 106.783 99.184 110.042C98.4543 110.812 97.4476 111.26 96.3868 111.286L115.163 131.196C116.88 132.913 119.664 132.913 121.381 131.196 123.097 129.479 123.097 126.695 121.381 124.978Z" transform="matrix(1 0 0 1.00535 783 499)"/><path d="M82.6852 100.986C83.5892 100.806 84.5166 100.778 85.4298 100.902L86.0278 100.345 91.0924 95.2804C90.9617 94.3553 90.9885 93.4149 91.1722 92.4988 91.6845 89.3529 90.4398 85.6966 86.7096 81.9644 82.0881 77.583 77.0863 73.6209 71.7632 70.125L70.4698 71.4184 85.2116 86.1602C85.6419 86.5905 85.6419 87.2883 85.2116 87.7186 84.7813 88.1489 84.0836 88.1489 83.6533 87.7186L68.9173 72.969 66.8486 75.0396 81.5904 89.7795C82.0207 90.2098 82.0207 90.9075 81.5904 91.3378 81.1601 91.7681 80.4624 91.7681 80.0321 91.3378L65.2903 76.596 63.2216 78.6647 77.9634 93.4065C78.3937 93.8368 78.3937 94.5345 77.9634 94.9648 77.5331 95.3951 76.8354 95.3951 76.4051 94.9648L61.6652 80.223 60.3854 81.5047C63.9275 86.7976 67.8609 91.8178 72.1528 96.5232 75.8811 100.253 79.5393 101.498 82.6852 100.986Z" transform="matrix(1 0 0 1.00535 783 499)"/></g></svg>