<svg width="322" height="323" xmlns="http://www.w3.org/2000/svg" xmlns:xlink="http://www.w3.org/1999/xlink" xml:space="preserve" overflow="hidden"><g transform="translate(-608 -101)"><path d="M306.906 141.21C303.217 137.521 296.844 137.185 292.819 140.875L262.967 170.727C259.948 103.644 204.604 50.6479 137.521 50.6479 85.8667 50.6479 39.2438 82.1771 20.4604 130.477 1.67708 178.442 14.0875 233.45 51.6542 268.669 55.6792 272.358 62.0521 272.358 65.7417 267.998 69.4313 263.973 69.4313 257.6 65.4062 253.91 30.5229 221.375 21.8021 169.385 43.9396 127.458 66.0771 85.1958 114.042 63.0583 160.329 73.4563 206.952 83.8542 240.829 124.104 242.842 171.733L212.319 140.875C208.294 136.85 201.921 136.85 198.231 140.875 194.542 144.9 194.206 151.273 198.231 154.963L245.525 202.256C247.202 203.933 249.55 204.94 251.898 205.275L252.569 205.275 253.575 205.275 254.581 205.275 255.252 204.94C255.587 204.94 255.923 204.604 256.258 204.604L256.258 204.604C257.6 204.269 258.606 203.262 259.613 202.256L306.906 154.963C310.931 151.273 310.931 144.9 306.906 141.21Z" transform="matrix(1 0 0 1.00311 608 101)"/></g></svg>