<svg width="170" height="170" xmlns="http://www.w3.org/2000/svg" xmlns:xlink="http://www.w3.org/1999/xlink" xml:space="preserve" overflow="hidden"><g transform="translate(-405 -97)"><path d="M518.333 150.125C518.333 165.773 505.648 178.458 490 178.458 474.352 178.458 461.667 165.773 461.667 150.125 461.667 134.477 474.352 121.792 490 121.792 505.648 121.792 518.333 134.477 518.333 150.125Z"/><path d="M546.667 242.208 546.667 213.875C546.667 209.625 544.542 205.375 541 202.542 533.208 196.167 523.292 191.917 513.375 189.083 506.292 186.958 498.5 185.542 490 185.542 482.208 185.542 474.417 186.958 466.625 189.083 456.708 191.917 446.792 196.875 439 202.542 435.458 205.375 433.333 209.625 433.333 213.875L433.333 242.208 546.667 242.208Z"/></g></svg>