<svg width="206" height="206" xmlns="http://www.w3.org/2000/svg" xmlns:xlink="http://www.w3.org/1999/xlink" xml:space="preserve" overflow="hidden"><g transform="translate(-1014 -334)"><path d="M1141.25 414.04C1132.24 414.04 1125.15 406.744 1125.15 397.946 1125.15 389.148 1132.45 381.852 1141.25 381.852 1150.26 381.852 1157.34 389.148 1157.34 397.946 1157.34 406.744 1150.05 414.04 1141.25 414.04ZM1177.51 387.86C1176.65 384.856 1175.58 382.067 1174.08 379.492L1177.51 369.406 1169.79 361.681 1159.7 365.115C1157.13 363.612 1154.34 362.54 1151.33 361.681L1146.61 352.24 1135.88 352.24 1131.16 361.681C1128.16 362.54 1125.37 363.612 1122.79 365.115L1112.71 361.681 1104.98 369.406 1108.42 379.492C1106.91 382.067 1105.84 384.856 1104.98 387.86L1095.54 392.581 1095.54 403.31 1104.98 408.031C1105.84 411.035 1106.91 413.825 1108.42 416.4L1104.98 426.485 1112.49 433.996 1122.58 430.562C1125.15 432.065 1127.94 433.138 1130.95 433.996L1135.67 443.438 1146.4 443.438 1151.12 433.996C1154.12 433.138 1156.91 432.065 1159.49 430.562L1169.57 433.996 1177.3 426.485 1173.86 416.4C1175.37 413.825 1176.65 410.821 1177.51 408.031L1186.95 403.31 1186.95 392.581 1177.51 387.86Z"/><path d="M1092.75 492.148C1083.74 492.148 1076.66 484.852 1076.66 476.054 1076.66 467.042 1083.95 459.96 1092.75 459.96 1101.76 459.96 1108.85 467.256 1108.85 476.054 1108.85 484.852 1101.76 492.148 1092.75 492.148L1092.75 492.148ZM1125.58 457.6 1129.02 447.515 1121.29 439.79 1111.21 443.223C1108.63 441.721 1105.63 440.648 1102.84 439.79L1098.12 430.348 1087.39 430.348 1082.67 439.79C1079.66 440.648 1076.87 441.721 1074.3 443.223L1064.21 439.79 1056.7 447.3 1059.92 457.385C1058.42 459.96 1057.35 462.965 1056.49 465.754L1047.05 470.475 1047.05 481.204 1056.49 485.925C1057.35 488.929 1058.42 491.719 1059.92 494.294L1056.7 504.379 1064.21 511.89 1074.3 508.671C1076.87 510.173 1079.66 511.246 1082.67 512.104L1087.39 521.546 1098.12 521.546 1102.84 512.104C1105.84 511.246 1108.63 510.173 1111.21 508.671L1121.29 512.104 1128.8 504.379 1125.58 494.508C1127.09 491.933 1128.16 489.144 1129.02 486.14L1138.46 481.419 1138.46 470.69 1129.02 465.969C1128.16 462.965 1127.09 460.175 1125.58 457.6Z"/></g></svg>