<svg width="170" height="170" xmlns="http://www.w3.org/2000/svg" xmlns:xlink="http://www.w3.org/1999/xlink" xml:space="preserve" overflow="hidden"><g transform="translate(-799 -297)"><path d="M884 314.708C863.525 314.688 844.159 324.012 831.406 340.031L828.55 337.175 816.708 325.333 816.708 362.521 853.896 362.521 843.625 352.25 839.042 347.667C858.069 322.908 893.565 318.261 918.324 337.289 943.083 356.316 947.73 391.811 928.703 416.571 909.675 441.33 874.18 445.976 849.421 426.949 835.462 416.222 827.296 399.605 827.333 382L816.708 382C816.708 419.164 846.836 449.292 884 449.292 921.164 449.292 951.292 419.164 951.292 382 951.292 344.836 921.164 314.708 884 314.708Z"/><path d="M878.688 344.812 878.688 384.201 905.036 410.548 912.548 403.036 889.312 379.799 889.312 344.812 878.688 344.812Z"/></g></svg>