<svg width="96" height="96" xmlns="http://www.w3.org/2000/svg" xmlns:xlink="http://www.w3.org/1999/xlink" xml:space="preserve" overflow="hidden"><g transform="translate(-592 -312)"><path d="M645.6 365.3C649 368 652.2 372.7 654.6 378L625.4 378C627.9 372.7 631 367.9 634.4 365.3 636 364 637 362.1 637 360 637 357.9 636 356 634.4 354.7 627.6 349.4 621.7 335.8 620.7 326L659.4 326C658.3 335.8 652.5 349.4 645.7 354.7 644 356 643 357.9 643 360 643 362.1 644 364 645.6 365.3ZM665.3 326 668 326 668 320 612 320 612 326 614.6 326C615.7 337.1 622.1 353.3 631.4 360 622.1 366.7 615.6 382.9 614.6 394L612 394 612 400 668 400 668 394 665.3 394C664.3 382.9 657.8 366.7 648.5 360 657.8 353.3 664.3 337.1 665.3 326Z"/></g></svg>