<svg width="227" height="227" xmlns="http://www.w3.org/2000/svg" xmlns:xlink="http://www.w3.org/1999/xlink" xml:space="preserve" overflow="hidden"><g transform="translate(-93 -145)"><path d="M213.594 249.042 263.25 249.042C267.27 249.042 270.344 245.968 270.344 241.948 270.344 237.928 267.27 234.854 263.25 234.854L154.479 234.854C150.459 234.854 147.385 237.928 147.385 241.948 147.385 245.968 150.459 249.042 154.479 249.042L199.406 249.042 199.406 308.156 185.219 308.156 185.219 322.344 227.781 322.344 227.781 308.156 213.594 308.156 213.594 249.042Z"/><path d="M175.997 267.958 132.489 267.958 126.104 203.405 126.104 203.405C125.631 199.858 122.794 197.021 119.01 197.021 114.991 197.021 111.917 200.095 111.917 204.115 111.917 204.351 111.917 204.587 111.917 204.824L111.917 204.824 119.01 274.816 112.153 322.344 126.577 322.344 128.942 305.792 161.573 305.792 161.573 322.344 175.76 322.344 175.76 282.146 175.997 282.146C180.017 282.146 183.091 279.072 183.091 275.052 183.091 271.032 179.78 267.958 175.997 267.958ZM161.573 296.333 130.124 296.333 132.252 282.146 161.573 282.146 161.573 296.333Z"/><path d="M301.083 204.824C301.083 204.587 301.083 204.351 301.083 204.115 301.083 200.095 298.009 197.021 293.99 197.021 290.443 197.021 287.369 199.858 286.896 203.405L286.896 203.405 280.511 267.958 237.003 267.958C232.983 267.958 229.909 271.032 229.909 275.052 229.909 279.072 232.983 282.146 237.003 282.146L237.24 282.146 237.24 322.344 251.427 322.344 251.427 305.792 284.058 305.792 286.423 322.344 300.847 322.344 293.99 274.816 301.083 204.824 301.083 204.824ZM251.427 296.333 251.427 282.146 280.748 282.146 282.876 296.333 251.427 296.333Z"/></g></svg>